<svg xmlns="http://www.w3.org/2000/svg" viewBox="0 0 64 64" width="64" height="64" role="img"
  aria-label="Forte">
  <defs>
    <linearGradient id="aurora" x1="0" y1="0" x2="1.1" y2="1.1">
      <stop offset="0%" stop-color="#6366F1" />
      <stop offset="50%" stop-color="#A855F7" />
      <stop offset="100%" stop-color="#EC4899" />
    </linearGradient>
  </defs>

  <g fill="url(#aurora)">
    <path
      d="M42,12 c-8,0 -12,4 -14,10 l-3,10 h9 l-1,4 h-9 l-4,18 c-1.5,4 -4,6 -8,6 c-3,0 -5,-1.5 -5,-3.5 s2,-3.5 4,-3.5 s3,1.5 4,3 l4,-16 h-6 l1,-4 h6 l3,-11 c2,-7 5,-12 10,-12 z" />

    <path d="M10,25 l28,-2 l0,2 l-28,2 z" fill="#fff" fill-opacity="0.1" />
    <path d="M10,35 l28,-2 l0,2 l-28,2 z" fill="#fff" fill-opacity="0.1" />
  </g>
</svg>